REM DIRINDEX 1\2\6,1\2\7,1\2\8,1\2\9,1\3\10,1\3\11,1\4\12,1\4\13,1\4\14,1\5\15,1\5\16,1\5\17
REM DIRNAME folder01,folder02,folder03,folder04,folder05,folder06,folder07,folder08,folder09,folder10,folder11,folder12,folder13,folder14,folder15,folder16,folder17
TITLE ""
FILE "1400_2_sec05_0483_0500.mp3" MP3
  TRACK 01 AUDIO
    TITLE "0:"
    INDEX 01 00:00:00
  TRACK 02 AUDIO
    TITLE "13:cjc029_2551"
    INDEX 01 00:00:19
  TRACK 03 AUDIO
    TITLE "0:"
    INDEX 01 00:01:52
  TRACK 04 AUDIO
    TITLE "14:cjc029_2552"
    INDEX 01 00:01:56
  TRACK 05 AUDIO
    TITLE "0:"
    INDEX 01 00:03:02
  TRACK 06 AUDIO
    TITLE "13:cjc029_2553"
    INDEX 01 00:03:59
  TRACK 07 AUDIO
    TITLE "0:"
    INDEX 01 00:04:68
  TRACK 08 AUDIO
    TITLE "14:cjc029_2554"
    INDEX 01 00:04:72
  TRACK 09 AUDIO
    TITLE "0:"
    INDEX 01 00:06:22
  TRACK 10 AUDIO
    TITLE "13:cjc029_2555"
    INDEX 01 00:07:03
  TRACK 11 AUDIO
    TITLE "0:"
    INDEX 01 00:08:11
  TRACK 12 AUDIO
    TITLE "14:cjc029_2556"
    INDEX 01 00:08:17
  TRACK 13 AUDIO
    TITLE "0:"
    INDEX 01 00:11:07
  TRACK 14 AUDIO
    TITLE "13:cjc029_2557"
    INDEX 01 00:11:62
  TRACK 15 AUDIO
    TITLE "0:"
    INDEX 01 00:12:65
  TRACK 16 AUDIO
    TITLE "14:cjc029_2558"
    INDEX 01 00:12:71
  TRACK 17 AUDIO
    TITLE "0:"
    INDEX 01 00:15:32
  TRACK 18 AUDIO
    TITLE "13:cjc029_2559"
    INDEX 01 00:16:12
  TRACK 19 AUDIO
    TITLE "0:"
    INDEX 01 00:17:25
  TRACK 20 AUDIO
    TITLE "14:cjc029_2560"
    INDEX 01 00:17:29
  TRACK 21 AUDIO
    TITLE "0:"
    INDEX 01 00:21:70
  TRACK 22 AUDIO
    TITLE "13:cjc029_2561"
    INDEX 01 00:22:52
  TRACK 23 AUDIO
    TITLE "0:"
    INDEX 01 00:23:59
  TRACK 24 AUDIO
    TITLE "14:cjc029_2562"
    INDEX 01 00:23:63
  TRACK 25 AUDIO
    TITLE "0:"
    INDEX 01 00:27:73
  TRACK 26 AUDIO
    TITLE "13:cjc029_2563"
    INDEX 01 00:28:53
  TRACK 27 AUDIO
    TITLE "0:"
    INDEX 01 00:29:66
  TRACK 28 AUDIO
    TITLE "14:cjc029_2564"
    INDEX 01 00:29:70
  TRACK 29 AUDIO
    TITLE "0:"
    INDEX 01 00:32:54
  TRACK 30 AUDIO
    TITLE "13:cjc029_2565"
    INDEX 01 00:33:34
  TRACK 31 AUDIO
    TITLE "0:"
    INDEX 01 00:34:45
  TRACK 32 AUDIO
    TITLE "14:cjc029_2566"
    INDEX 01 00:34:51
  TRACK 33 AUDIO
    TITLE "0:"
    INDEX 01 00:36:09
  TRACK 34 AUDIO
    TITLE "13:cjc029_2567"
    INDEX 01 00:36:64
  TRACK 35 AUDIO
    TITLE "0:"
    INDEX 01 00:38:04
  TRACK 36 AUDIO
    TITLE "14:cjc029_2568"
    INDEX 01 00:38:06
  TRACK 37 AUDIO
    TITLE "0:"
    INDEX 01 00:39:31
  TRACK 38 AUDIO
    TITLE "13:cjc029_2569"
    INDEX 01 00:40:15
  TRACK 39 AUDIO
    TITLE "0:"
    INDEX 01 00:41:22
  TRACK 40 AUDIO
    TITLE "14:cjc029_2570"
    INDEX 01 00:41:28
  TRACK 41 AUDIO
    TITLE "0:"
    INDEX 01 00:44:56
  TRACK 42 AUDIO
    TITLE "13:cjc029_2571"
    INDEX 01 00:45:35
  TRACK 43 AUDIO
    TITLE "0:"
    INDEX 01 00:46:66
  TRACK 44 AUDIO
    TITLE "14:cjc029_2572"
    INDEX 01 00:46:70
  TRACK 45 AUDIO
    TITLE "0:"
    INDEX 01 00:49:61
  TRACK 46 AUDIO
    TITLE "13:cjc029_2573"
    INDEX 01 00:50:42
  TRACK 47 AUDIO
    TITLE "0:"
    INDEX 01 00:52:08
  TRACK 48 AUDIO
    TITLE "14:cjc029_2574"
    INDEX 01 00:52:12
  TRACK 49 AUDIO
    TITLE "0:"
    INDEX 01 00:54:50
  TRACK 50 AUDIO
    TITLE "13:cjc029_2575"
    INDEX 01 00:55:30
  TRACK 51 AUDIO
    TITLE "0:"
    INDEX 01 00:56:39
  TRACK 52 AUDIO
    TITLE "14:cjc029_2576"
    INDEX 01 00:56:41
  TRACK 53 AUDIO
    TITLE "0:"
    INDEX 01 00:58:71
  TRACK 54 AUDIO
    TITLE "13:cjc029_2577"
    INDEX 01 00:59:51
  TRACK 55 AUDIO
    TITLE "0:"
    INDEX 01 01:00:53
  TRACK 56 AUDIO
    TITLE "14:cjc029_2578"
    INDEX 01 01:00:59
  TRACK 57 AUDIO
    TITLE "0:"
    INDEX 01 01:03:49
  TRACK 58 AUDIO
    TITLE "13:cjc029_2579"
    INDEX 01 01:04:33
  TRACK 59 AUDIO
    TITLE "0:"
    INDEX 01 01:05:36
  TRACK 60 AUDIO
    TITLE "14:cjc029_2580"
    INDEX 01 01:05:40
  TRACK 61 AUDIO
    TITLE "0:"
    INDEX 01 01:08:19
  TRACK 62 AUDIO
    TITLE "13:cjc029_2581"
    INDEX 01 01:08:74
  TRACK 63 AUDIO
    TITLE "0:"
    INDEX 01 01:10:08
  TRACK 64 AUDIO
    TITLE "14:cjc029_2582"
    INDEX 01 01:10:10
  TRACK 65 AUDIO
    TITLE "0:"
    INDEX 01 01:14:61
  TRACK 66 AUDIO
    TITLE "13:cjc029_2583"
    INDEX 01 01:15:42
  TRACK 67 AUDIO
    TITLE "0:"
    INDEX 01 01:16:60
  TRACK 68 AUDIO
    TITLE "14:cjc029_2584"
    INDEX 01 01:16:63
  TRACK 69 AUDIO
    TITLE "0:"
    INDEX 01 01:19:42
  TRACK 70 AUDIO
    TITLE "13:cjc029_2585"
    INDEX 01 01:20:22
  TRACK 71 AUDIO
    TITLE "0:"
    INDEX 01 01:21:23
  TRACK 72 AUDIO
    TITLE "14:cjc029_2586"
    INDEX 01 01:21:27
  TRACK 73 AUDIO
    TITLE "0:"
    INDEX 01 01:23:54
